<svg xmlns="http://www.w3.org/2000/svg" xmlns:xlink="http://www.w3.org/1999/xlink" width="30" height="30" viewBox="0 0 30 30">
  <defs>
    <clipPath id="clip-bitcoin">
      <rect width="30" height="30"/>
    </clipPath>
  </defs>
  <g id="bitcoin" clip-path="url(#clip-bitcoin)">
    <g id="Layer_51" data-name="Layer 51" transform="translate(-2.654 -2.654)">
      <g id="Group_14" data-name="Group 14" transform="translate(2.654 2.654)">
        <rect id="Rectangle_6" data-name="Rectangle 6" width="30" height="30" rx="7" fill="#ff5023"/>
        <path id="Intersection_1" data-name="Intersection 1" d="M0,7A7,7,0,0,1,7,0h6.514a16.364,16.364,0,0,1,.815,5.117A16.379,16.379,0,0,1,0,21.367Z" transform="translate(0 0)" fill="#ff6243"/>
      </g>
      <path id="Path_9" data-name="Path 9" d="M30.941,22.105a3.473,3.473,0,0,0-1.628-2.121l-.865-.5.5-.865a1,1,0,1,0-1.729-1l-.5.865-1.3-.749.5-.865a1,1,0,1,0-1.729-1l-.5.865-1.681-.97a1.036,1.036,0,0,0-1.365.263,1.005,1.005,0,0,0,.318,1.439l.865.5-3.993,6.916-.816-.471a1.036,1.036,0,0,0-1.365.263,1,1,0,0,0,.318,1.438l1.729,1-.5.865a1,1,0,1,0,1.729,1l.5-.865,1.3.749-.5.865a1,1,0,1,0,1.729,1l.5-.865.74.427a3.6,3.6,0,0,0,4.953-1.306,3.472,3.472,0,0,0,.294-2.553.135.135,0,0,0-.013-.036,3.489,3.489,0,0,0,2.509-4.286Zm-4.574,5.976a1.5,1.5,0,0,1-2.046.549l-4.755-2.745,1.5-2.6,4.755,2.745A1.5,1.5,0,0,1,26.367,28.081Zm2.5-4.323a1.5,1.5,0,0,1-2.046.549l-4.755-2.745,1.5-2.6,4.755,2.745a1.5,1.5,0,0,1,.549,2.046Z" transform="translate(-6.229 -6.178)" fill="#f1f2f2"/>
    </g>
  </g>
</svg>
