<svg xmlns="http://www.w3.org/2000/svg" xmlns:xlink="http://www.w3.org/1999/xlink" width="30" height="30" viewBox="0 0 30 30">
  <defs>
    <clipPath id="clip-Tron_logo">
      <rect width="30" height="30"/>
    </clipPath>
  </defs>
  <g id="Tron_logo" data-name="Tron logo" clip-path="url(#clip-Tron_logo)">
    <g id="Layer_51" data-name="Layer 51">
      <g id="Group_14" data-name="Group 14">
        <rect id="Rectangle_6" data-name="Rectangle 6" width="30" height="30" rx="7" fill="#ff2424"/>
        <path id="Intersection_1" data-name="Intersection 1" d="M0,7A7,7,0,0,1,7,0h6.47a16.39,16.39,0,0,1,.81,5.1A16.32,16.32,0,0,1,0,21.29Z" fill="#ff4545"/>
      </g>
      <path id="Path_40" data-name="Path 40" d="M8.46,7.63l.19,0,1.08.19,1.3.23,1.32.24,1.3.24,1.21.22L16.25,9l1.46.27,1.59.3.63.11a.87.87,0,0,1,.27.14l.54.49,1.81,1.74.32.3a.57.57,0,0,1,.19.49L23,13a2.9,2.9,0,0,1-.39.53l-2.39,2.93-2.82,3.43-2.44,3-.36.43a.47.47,0,0,1-.1.1.15.15,0,0,1-.2,0h0a.53.53,0,0,1-.12-.14l-.12-.32-1-2.45-2.4-5.77C10,12.82,9.18,11,8.45,9.14c-.12-.31-.24-.62-.35-.94a.43.43,0,0,1,.26-.56h.1Zm1.2,1.73h0l4.7,11.49a0,0,0,0,0,0,0l.08-.69c0-.24.05-.47.08-.71s.06-.47.08-.71L14.7,18l.09-.77.09-.78.09-.77c0-.28.06-.57.1-.85l.09-.78a.07.07,0,0,0,0-.06l-1.81-1.53L10,9.6Zm5.65,11.48h0l6.13-7.37h-.06l-.51.09-.95.15-1.05.17-1,.16-1,.16-.75.12s0,0,0,0l-.06.49-.09.7-.08.7c0,.24-.05.47-.08.7s0,.47-.08.7l-.09.7c0,.24-.05.47-.08.7l-.09.77-.09.78a1.79,1.79,0,0,1,0,.24Zm3.53-10.36L10.38,8.92h0l5.22,4.28Zm-2.05,2.89h0l4.81-.88-1.79-1.65Z" fill="#f1f2f2"/>
    </g>
  </g>
</svg>
